<?xml version="1.0" ?>
<!-- Uploaded to: SVG Repo, www.svgrepo.com, Generator: SVG Repo Mixer Tools -->
<svg width="800px" height="800px" viewBox="0 0 64 64" xmlns="http://www.w3.org/2000/svg">
<g id="a"/>
<g id="b"/>
<g id="c"/>
<g id="d"/>
<g id="e"/>
<g id="f">
<path d="M31.75,5.05c-.23,.01-.46,.06-.67,.13l-11.19,4.68c-.57,.24-.96,.77-1.01,1.39l-1.46,17.83c-.05,.64,.13,1.29,.51,1.81l4.27,5.8h3.49L31.75,5.05Z" fill="#3aedbc" id="g"/>
<path d="M32.25,5.05l6.06,31.64h3.49l4.27-5.8c.38-.52,.57-1.16,.51-1.81l-1.46-17.83c-.05-.61-.44-1.15-1.01-1.39l-11.19-4.68c-.22-.08-.44-.12-.67-.13Z" fill="#6df4c0" id="h"/>
<path d="M32,5l-2.71,20.63,2.71,11.05h6.31l4.12-8.63-.99-13.82-9.19-9.19c-.08-.02-.17-.04-.25-.05h0Z" fill="#9af6d3" id="i"/>
<path d="M32,5c-.09,.01-.17,.03-.25,.05l-9.19,9.19-.99,13.82,4.12,8.63h6.31V5Z" fill="#6df4c0" id="j"/>
<path d="M34.72,59l-5.11-8.82-9.28-2.19,2.11,10.02c.12,.57,.62,.98,1.21,.98h11.06Z" fill="#9dacb9" id="k"/>
<path d="M32,36.69h-9.81l-2.78,2.93c-.43,.46-.61,1.1-.48,1.71l1.4,6.66,7.19,5.5,9.29-4.94,4.99-11.87h-9.81Z" fill="#758797" id="l"/>
<path d="M19.63,44.66l.7,3.33,14.38,11-15.08-14.34Z" fill="#637380" id="m"/>
<path d="M41.81,36.69l-14.28,16.81,7.19,5.5h6.26c.58,0,1.09-.41,1.21-.98l3.4-16.14c.13-.62-.05-1.26-.48-1.71l-3.29-3.48Z" fill="#8598ab" id="n"/>
<path d="M27.53,53.5l14.28-16.81-17.13,14.63,2.85,2.18Z" fill="#637380" id="o"/>
<path d="M28.15,52.76l-.63,.74,7.19,5.5-6.56-6.24Z" fill="#758797" id="p"/>
<path d="M47.59,29l-1.46-17.83c-.08-.99-.7-1.84-1.62-2.23l-11.19-4.68c-.83-.35-1.79-.35-2.62,0h0l-11.19,4.68c-.92,.38-1.54,1.24-1.62,2.23l-1.46,17.83c-.07,.88,.18,1.77,.71,2.48l3.78,5.12-2.2,2.33c-.66,.69-.93,1.67-.74,2.6l3.51,16.68c.22,1.03,1.14,1.78,2.19,1.78h17.32c1.05,0,1.97-.75,2.19-1.78l3.4-16.14c.2-.94-.08-1.91-.74-2.6l-2.72-2.87,3.78-5.12c.53-.72,.78-1.6,.71-2.48ZM33,7.21l7.48,7.47,.94,13.18-3.74,7.82h-4.68V7.21Zm-14.59,21.95l1.46-17.83c.02-.24,.17-.45,.4-.55l7.44-3.11-5.86,5.86c-.17,.17-.27,.4-.29,.64l-.99,13.82c-.01,.17,.02,.35,.09,.5l3.44,7.2h-1.4l-3.97-5.39c-.24-.33-.35-.73-.32-1.13ZM31,7.21v28.47h-4.68l-3.74-7.82,.94-13.18,7.48-7.47Zm-10.86,33.1l2.48-2.62h17.02l-12.26,14.44-6.14-4.7-1.33-6.3c-.06-.29,.02-.6,.23-.82Zm3.28,17.5l-1.55-7.38,9.9,7.57h-8.11c-.11,0-.21-.08-.23-.19Zm20.95-16.96c.21,.22,.29,.52,.23,.82l-3.4,16.14c-.02,.11-.12,.19-.23,.19h-5.92l-6.08-4.66,12.87-15.16,2.53,2.67Zm-3.07-5.16h-1.4l3.44-7.19c.07-.16,.11-.33,.09-.5l-.99-13.82c-.02-.24-.12-.47-.29-.64l-5.86-5.86,7.44,3.11c.23,.09,.38,.3,.4,.55l1.46,17.83c.03,.4-.08,.81-.32,1.13l-3.97,5.39Z"/>
</g>
<g id="q"/>
<g id="r"/>
<g id="s"/>
<g id="t"/>
<g id="u"/>
<g id="v"/>
<g id="w"/>
<g id="x"/>
<g id="y"/>
<g id="a`"/>
<g id="aa"/>
<g id="ab"/>
<g id="ac"/>
<g id="ad"/>
<g id="ae"/>
<g id="af"/>
<g id="ag"/>
<g id="ah"/>
<g id="ai"/>
<g id="aj"/>
<g id="ak"/>
<g id="al"/>
<g id="am"/>
<g id="an"/>
<g id="ao"/>
<g id="ap"/>
<g id="aq"/>
<g id="ar"/>
<g id="as"/>
<g id="at"/>
<g id="au"/>
<g id="av"/>
<g id="aw"/>
<g id="ax"/>
<g id="ay"/>
<g id="b`"/>
<g id="ba"/>
<g id="bb"/>
<g id="bc"/>
<g id="bd"/>
<g id="be"/>
<g id="bf"/>
<g id="bg"/>
<g id="bh"/>
</svg>